<svg xmlns="http://www.w3.org/2000/svg" xmlns:xlink="http://www.w3.org/1999/xlink" width="528" height="173" viewBox="0 0 528 173"><defs><filter id="a" x="31.5" y="45" width="475" height="126" filterUnits="userSpaceOnUse"><feOffset input="SourceAlpha"/><feGaussianBlur stdDeviation="3" result="b"/><feFlood flood-opacity="0.522"/><feComposite operator="in" in2="b"/><feComposite in="SourceGraphic"/></filter><filter id="c" x="207.09" y="119.486" width="127" height="40" filterUnits="userSpaceOnUse"><feOffset dx="3" dy="3" input="SourceAlpha"/><feGaussianBlur stdDeviation="3" result="d"/><feFlood flood-opacity="0.302"/><feComposite operator="in" in2="d"/><feComposite in="SourceGraphic"/></filter><filter id="e" x="97.5" y="0" width="46" height="46" filterUnits="userSpaceOnUse"><feOffset dx="1" dy="1" input="SourceAlpha"/><feGaussianBlur stdDeviation="2" result="f"/><feFlood flood-opacity="0.522"/><feComposite operator="in" in2="f"/><feComposite in="SourceGraphic"/></filter><filter id="g" x="248.5" y="0" width="46" height="46" filterUnits="userSpaceOnUse"><feOffset dx="1" dy="1" input="SourceAlpha"/><feGaussianBlur stdDeviation="2" result="h"/><feFlood flood-opacity="0.522"/><feComposite operator="in" in2="h"/><feComposite in="SourceGraphic"/></filter><filter id="i" x="406.5" y="0" width="46" height="46" filterUnits="userSpaceOnUse"><feOffset dx="1" dy="1" input="SourceAlpha"/><feGaussianBlur stdDeviation="2" result="j"/><feFlood flood-opacity="0.522"/><feComposite operator="in" in2="j"/><feComposite in="SourceGraphic"/></filter><radialGradient id="k" cx="0.5" cy="0.5" r="0.673" gradientTransform="translate(0.079 -0.068) rotate(8.462)" gradientUnits="objectBoundingBox"><stop offset="0" stop-color="#fff" stop-opacity="0"/><stop offset="1" stop-color="#c41313"/></radialGradient></defs><g transform="translate(0 5)"><g transform="matrix(1, 0, 0, 1, 0, -5)" filter="url(#a)"><rect width="457" height="108" rx="16" transform="translate(40.5 54)" fill="#fff"/></g><g transform="translate(0 60)"><text transform="translate(228 24)" stroke="rgba(255,255,255,0)" stroke-width="1" font-size="20" font-family="SegoeUI-Semilight, Segoe UI" font-weight="300"><tspan x="-129.863" y="0">Seu Arquivo foi assinado com </tspan></text><text transform="translate(349)" fill="#1fa305" font-size="20" font-family="SegoeUI-Semilight, Segoe UI" font-weight="300"><tspan x="12.067" y="22">sucesso!</tspan></text><text transform="translate(0 32.486)" fill="#242424" font-size="14" font-family="SegoeUI-Semilight, Segoe UI" font-weight="300"><tspan x="102.351" y="15">Clique abaixo e faça o download do arquivo assinado.</tspan></text><g transform="translate(228.566 80.885)"><g transform="matrix(1, 0, 0, 1, -228.57, -145.89)" filter="url(#c)"><rect width="109" height="22" rx="11" transform="translate(213.09 125.49)" fill="#0f6191"/></g><text transform="translate(39.524 -5.399)" fill="#fff" stroke="rgba(255,255,255,0)" stroke-width="1" font-size="9" font-family="SegoeUI-Light, Segoe UI" font-weight="300"><tspan x="-41.698" y="0">Aqui está seu arquivo!</tspan></text></g></g><g transform="translate(102.5)"><path d="M0,0H283" transform="translate(30.5 18.5)" fill="none" stroke="#b9b7b7" stroke-linecap="round" stroke-width="3"/><g transform="translate(-1 4)"><g transform="matrix(1, 0, 0, 1, -101.5, -9)" filter="url(#e)"><g transform="translate(102.5 5)" fill="#0067a2" stroke="rgba(255,255,255,0)" stroke-width="1"><circle cx="17" cy="17" r="17" stroke="none"/><circle cx="17" cy="17" r="16.5" fill="none"/></g></g><text transform="translate(18 18.5)" fill="#fff" stroke="#fff" stroke-width="1" font-size="14" font-family="SegoeUI-Light, Segoe UI" font-weight="300"><tspan x="-2.495" y="0">1</tspan></text><line x2="8" transform="translate(14.5 19.5)" fill="none" stroke="#fff" stroke-width="1.4"/></g><g transform="translate(150 4)"><g transform="matrix(1, 0, 0, 1, -252.5, -9)" filter="url(#g)"><g transform="translate(253.5 5)" fill="#0067a2" stroke="rgba(255,255,255,0)" stroke-width="1"><circle cx="17" cy="17" r="17" stroke="none"/><circle cx="17" cy="17" r="16.5" fill="none"/></g></g><text transform="translate(18 18.5)" fill="#fff" stroke="#fff" stroke-width="1" font-size="14" font-family="SegoeUI-Light, Segoe UI" font-weight="300"><tspan x="-3.606" y="0">2</tspan></text></g><g transform="translate(308 4)"><g transform="matrix(1, 0, 0, 1, -410.5, -9)" filter="url(#i)"><g transform="translate(411.5 5)" fill="#0067a2"><path d="M17,0A17,17,0,1,1,0,17,17,17,0,0,1,17,0Z" stroke="none"/><path d="M 17 1 C 12.72624969482422 1 8.708290100097656 2.664289474487305 5.686290740966797 5.686290740966797 C 2.664289474487305 8.708290100097656 1 12.72624969482422 1 17 C 1 21.27375030517578 2.664289474487305 25.29170989990234 5.686290740966797 28.3137092590332 C 8.708290100097656 31.3357105255127 12.72624969482422 33 17 33 C 21.27375030517578 33 25.29170989990234 31.3357105255127 28.3137092590332 28.3137092590332 C 31.3357105255127 25.29170989990234 33 21.27375030517578 33 17 C 33 12.72624969482422 31.3357105255127 8.708290100097656 28.3137092590332 5.686290740966797 C 25.29170989990234 2.664289474487305 21.27375030517578 1 17 1 M 17 0 C 26.38883972167969 0 34 7.611160278320312 34 17 C 34 26.38883972167969 26.38883972167969 34 17 34 C 7.611160278320312 34 0 26.38883972167969 0 17 C 0 7.611160278320312 7.611160278320312 0 17 0 Z" stroke="none" fill="rgba(255,255,255,0)"/></g></g><text transform="translate(18 18.5)" fill="#fff" stroke="#fff" stroke-width="1" font-size="14" font-family="SegoeUI-Light, Segoe UI" font-weight="300"><tspan x="-3.606" y="0">3</tspan></text></g></g><circle cx="17" cy="17" r="17" transform="translate(295.5 117)" fill="url(#k)"/><path d="M21.248,23.142H13.789L17.714,32.7a1.306,1.306,0,0,1-.664,1.687L13.593,35.9a1.244,1.244,0,0,1-1.641-.683l-3.73-9.08L2.129,32.4A1.244,1.244,0,0,1,0,31.5V1.287a1.244,1.244,0,0,1,2.129-.9l20,20.569A1.289,1.289,0,0,1,21.248,23.142Z" transform="translate(311.5 132)" fill="#c41313"/></g></svg>