<svg id="Grupo_102" data-name="Grupo 102" xmlns="http://www.w3.org/2000/svg" xmlns:xlink="http://www.w3.org/1999/xlink" width="306.841" height="193.997" viewBox="0 0 306.841 193.997">
  <defs>
    <filter id="Caminho_55">
      <feOffset dx="3" dy="3" input="SourceAlpha"/>
      <feGaussianBlur stdDeviation="3" result="blur"/>
      <feFlood flood-color="#fff" flood-opacity="0.29" result="color"/>
      <feComposite operator="out" in="SourceGraphic" in2="blur"/>
      <feComposite operator="in" in="color"/>
      <feComposite operator="in" in2="SourceGraphic"/>
    </filter>
    <filter id="Caminho_56">
      <feOffset dx="3" dy="3" input="SourceAlpha"/>
      <feGaussianBlur stdDeviation="3" result="blur-2"/>
      <feFlood flood-opacity="0.259" result="color-2"/>
      <feComposite operator="out" in="SourceGraphic" in2="blur-2"/>
      <feComposite operator="in" in="color-2"/>
      <feComposite operator="in" in2="SourceGraphic"/>
    </filter>
  </defs>
  <g data-type="innerShadowGroup">
    <path id="Caminho_55-2" data-name="Caminho 55" d="M238.241-57.565c11.268,0,6.972-28.064,27.123-13.958,7.779,10.663,2.14,11.73,9.518,20.121C287.486-46.26,302-56.231,309.352-47.59c5.04,5.92,6.173,16.024,8.546,27.636s.946,16.24.946,18.812c0,5.686-5.8,19.634-21.8,17.728s-25.577,16.381-46.166,12.073c-68.817,33.795-125.85,77.927-184.991,89.557-13.425,2.64-19.035-13.4-26.989-14.174-26.11-2.545-29.443-6.7-24.586-28.86,1.3-5.953,16.648-10.919,5.722-27.838-7.649-12.031-7.549-17.92,3.019-27.431,7.26-6.533,27.211-3.776,30.854-24.83C58.114-5.994,59.837,5.25,59.837,5.25S230.04-57.565,238.241-57.565Z" transform="translate(-12.428 75.488)" fill="#88c8dc"/>
    <g transform="matrix(1, 0, 0, 1, 0, 0)" filter="url(#Caminho_55)">
      <path id="Caminho_55-3" data-name="Caminho 55" d="M238.241-57.565c11.268,0,6.972-28.064,27.123-13.958,7.779,10.663,2.14,11.73,9.518,20.121C287.486-46.26,302-56.231,309.352-47.59c5.04,5.92,6.173,16.024,8.546,27.636s.946,16.24.946,18.812c0,5.686-5.8,19.634-21.8,17.728s-25.577,16.381-46.166,12.073c-68.817,33.795-125.85,77.927-184.991,89.557-13.425,2.64-19.035-13.4-26.989-14.174-26.11-2.545-29.443-6.7-24.586-28.86,1.3-5.953,16.648-10.919,5.722-27.838-7.649-12.031-7.549-17.92,3.019-27.431,7.26-6.533,27.211-3.776,30.854-24.83C58.114-5.994,59.837,5.25,59.837,5.25S230.04-57.565,238.241-57.565Z" transform="translate(-12.43 75.49)" fill="#fff"/>
    </g>
  </g>
  <g data-type="innerShadowGroup">
    <path id="Caminho_56-2" data-name="Caminho 56" d="M170.8,15.581C271.2,16.5,233.732,51.06,232.9,60.513s39.131,50.347-61.276,49.432c-21.457-.2-44.338-21.119-63-20.862-39.076.538-67.091,19.16-82.056-9.612C12.994,72.689.3,75.9,0,62.434-.045,57.3,2.018,46.591,23.513,37.923S40.593,21.346,49.162,11.1C95.3-16.006,105.331,14.985,170.8,15.581Z" transform="translate(34.387 14.635) rotate(14)" fill="#e9f8ff"/>
    <g transform="matrix(1, 0, 0, 1, 0, 0)" filter="url(#Caminho_56)">
      <path id="Caminho_56-3" data-name="Caminho 56" d="M170.8,15.581C271.2,16.5,233.732,51.06,232.9,60.513s39.131,50.347-61.276,49.432c-21.457-.2-44.338-21.119-63-20.862-39.076.538-67.091,19.16-82.056-9.612C12.994,72.689.3,75.9,0,62.434-.045,57.3,2.018,46.591,23.513,37.923S40.593,21.346,49.162,11.1C95.3-16.006,105.331,14.985,170.8,15.581Z" transform="translate(34.39 14.63) rotate(14)" fill="#fff"/>
    </g>
  </g>
</svg>
