<svg xmlns="http://www.w3.org/2000/svg" xmlns:xlink="http://www.w3.org/1999/xlink" width="388" height="430" viewBox="0 0 388 430"><defs><filter id="a" x="0" y="194" width="385" height="236" filterUnits="userSpaceOnUse"><feOffset dx="2" dy="2" input="SourceAlpha"/><feGaussianBlur stdDeviation="5" result="b"/><feFlood flood-opacity="0.161"/><feComposite operator="in" in2="b"/><feComposite in="SourceGraphic"/></filter><filter id="c" x="121" y="355" width="143" height="45" filterUnits="userSpaceOnUse"><feOffset dx="3" dy="3" input="SourceAlpha"/><feGaussianBlur stdDeviation="3" result="d"/><feFlood flood-opacity="0.302"/><feComposite operator="in" in2="d"/><feComposite in="SourceGraphic"/></filter><filter id="e" x="48.5" y="56.5" width="293" height="29" filterUnits="userSpaceOnUse"><feOffset input="SourceAlpha"/><feGaussianBlur stdDeviation="1.5" result="f"/><feFlood flood-opacity="0.161"/><feComposite operator="in" in2="f"/><feComposite in="SourceGraphic"/></filter><filter id="g" x="112.5" y="175.5" width="165" height="29" filterUnits="userSpaceOnUse"><feOffset input="SourceAlpha"/><feGaussianBlur stdDeviation="1.5" result="h"/><feFlood flood-opacity="0.161"/><feComposite operator="in" in2="h"/><feComposite in="SourceGraphic"/></filter><filter id="i" x="19" y="0" width="46" height="46" filterUnits="userSpaceOnUse"><feOffset dx="1" dy="1" input="SourceAlpha"/><feGaussianBlur stdDeviation="2" result="j"/><feFlood flood-opacity="0.161"/><feComposite operator="in" in2="j"/><feComposite in="SourceGraphic"/></filter><filter id="k" x="170" y="0" width="46" height="46" filterUnits="userSpaceOnUse"><feOffset dx="1" dy="1" input="SourceAlpha"/><feGaussianBlur stdDeviation="2" result="l"/><feFlood flood-opacity="0.161"/><feComposite operator="in" in2="l"/><feComposite in="SourceGraphic"/></filter><filter id="m" x="328" y="0" width="46" height="46" filterUnits="userSpaceOnUse"><feOffset dx="1" dy="1" input="SourceAlpha"/><feGaussianBlur stdDeviation="2" result="n"/><feFlood flood-opacity="0.161"/><feComposite operator="in" in2="n"/><feComposite in="SourceGraphic"/></filter><filter id="o" x="7" y="79" width="381" height="97" filterUnits="userSpaceOnUse"><feOffset dx="2" dy="2" input="SourceAlpha"/><feGaussianBlur stdDeviation="5" result="p"/><feFlood flood-opacity="0.161"/><feComposite operator="in" in2="p"/><feComposite in="SourceGraphic"/></filter></defs><g transform="translate(13 5)"><g transform="translate(0 56)"><g transform="matrix(1, 0, 0, 1, -13, -61)" filter="url(#a)"><rect width="355" height="206" rx="16" transform="translate(13 207)" fill="#fff"/></g><g transform="translate(-428.909 -310)"><text transform="translate(572.909 497)" fill="#b5b5b5" stroke="rgba(255,255,255,0)" stroke-width="1" font-size="13" font-family="SegoeUI-Light, Segoe UI" font-weight="300"><tspan x="-61.68" y="0">Nome ou Razão Social</tspan></text><path d="M77,23h0Z" transform="translate(462 528)" fill="#cbcbcb" opacity="0.3"/><text transform="translate(595.909 536)" fill="#b5b5b5" stroke="rgba(255,255,255,0)" stroke-width="1" font-size="13" font-family="SegoeUI-Light, Segoe UI" font-weight="300"><tspan x="-85.287" y="0">CPF ou CNPJ (apenas números)</tspan></text><text transform="translate(527.909 583)" fill="#b5b5b5" stroke="rgba(255,255,255,0)" stroke-width="1" font-size="13" font-family="SegoeUI-Light, Segoe UI" font-weight="300"><tspan x="-16.682" y="0">Senha</tspan></text><g transform="translate(547.909 621.003)"><g transform="matrix(1, 0, 0, 1, -132, -372)" filter="url(#c)"><rect width="125" height="27" rx="13.5" transform="translate(127 361)" fill="#0067a2"/></g><text transform="translate(58 7.997)" fill="#fff" stroke="rgba(255,255,255,0)" stroke-width="1" font-size="15" font-family="SegoeUI-Light, Segoe UI" font-weight="300"><tspan x="-17.454" y="0">Gerar</tspan></text></g><line x2="289.409" transform="translate(463.5 504.5)" fill="none" stroke="#9a9a9a" stroke-width="1"/><line x2="289.409" transform="translate(463.5 543.5)" fill="none" stroke="#9a9a9a" stroke-width="1"/><line x2="289.409" transform="translate(463.5 590.5)" fill="none" stroke="#9a9a9a" stroke-width="1"/><path d="M8.669,2.25H.788A.788.788,0,0,0,0,3.038V3.3H9.457V3.038A.788.788,0,0,0,8.669,2.25ZM0,8.817a.788.788,0,0,0,.788.788h7.88a.788.788,0,0,0,.788-.788V3.826H0ZM5.779,5.008a.132.132,0,0,1,.131-.131H8.274a.132.132,0,0,1,.131.131v.263a.132.132,0,0,1-.131.131H5.91a.132.132,0,0,1-.131-.131Zm0,1.051a.132.132,0,0,1,.131-.131H8.274a.132.132,0,0,1,.131.131v.263a.132.132,0,0,1-.131.131H5.91a.132.132,0,0,1-.131-.131Zm0,1.051a.132.132,0,0,1,.131-.131H8.274a.132.132,0,0,1,.131.131v.263a.132.132,0,0,1-.131.131H5.91a.132.132,0,0,1-.131-.131ZM2.89,4.877A1.051,1.051,0,1,1,1.839,5.928,1.052,1.052,0,0,1,2.89,4.877ZM1.1,8.229a1.052,1.052,0,0,1,1-.726h.135a1.691,1.691,0,0,0,1.307,0h.135a1.052,1.052,0,0,1,1,.726.259.259,0,0,1-.256.325H1.358A.259.259,0,0,1,1.1,8.229Z" transform="translate(474.399 487.395)" fill="#9a9a9a"/><g transform="translate(473.966 525.952)"><path d="M4.752,2.669V0H.509A.49.49,0,0,0,0,.471V9.577a.49.49,0,0,0,.509.471H7.636a.49.49,0,0,0,.509-.471V3.14H5.261A.493.493,0,0,1,4.752,2.669ZM6.109,7.3a.246.246,0,0,1-.255.236H2.291A.246.246,0,0,1,2.036,7.3V7.144a.246.246,0,0,1,.255-.236H5.855a.246.246,0,0,1,.255.236Zm0-1.256a.246.246,0,0,1-.255.236H2.291a.246.246,0,0,1-.255-.236V5.888a.246.246,0,0,1,.255-.236H5.855a.246.246,0,0,1,.255.236Zm0-1.413v.157a.246.246,0,0,1-.255.236H2.291a.246.246,0,0,1-.255-.236V4.632A.246.246,0,0,1,2.291,4.4H5.855A.246.246,0,0,1,6.109,4.632ZM8.145,2.392v.12H5.43V0H5.56A.53.53,0,0,1,5.92.137L8,2.061A.452.452,0,0,1,8.145,2.392Z" transform="translate(0.849)" fill="#9a9a9a"/><g transform="translate(0.433 2.948)" fill="#9a9a9a" stroke="#fff9f9" stroke-width="1"><rect width="11" height="6" stroke="none"/><rect x="0.5" y="0.5" width="10" height="5" fill="none"/></g><text transform="translate(2.433 3.948)" fill="#fff" font-size="3" font-family="ArialRoundedMTBold, Arial Rounded MT" letter-spacing="0.051em"><tspan x="0.33" y="3">CPF</tspan></text></g><path d="M14.5,5.419H13.9V4.3a2.926,2.926,0,0,0-3.037-2.8A2.926,2.926,0,0,0,7.822,4.3v1.12H7.215A1.173,1.173,0,0,0,6,6.538v5.6a1.173,1.173,0,0,0,1.215,1.12H14.5a1.173,1.173,0,0,0,1.215-1.12v-5.6A1.173,1.173,0,0,0,14.5,5.419Zm-3.644,5.038a1.173,1.173,0,0,1-1.215-1.12,1.219,1.219,0,0,1,2.429,0A1.173,1.173,0,0,1,10.859,10.457Zm1.883-5.038H8.976V4.3a1.815,1.815,0,0,1,1.883-1.735A1.815,1.815,0,0,1,12.741,4.3Z" transform="translate(468.399 570.122)" fill="#9a9a9a"/><path d="M9.611,7.383a7.916,7.916,0,0,0-7.361,4.93,7.961,7.961,0,0,0,14.723,0A7.916,7.916,0,0,0,9.611,7.383Zm0,8.218a3.288,3.288,0,1,1,3.346-3.288A3.326,3.326,0,0,1,9.611,15.6Zm0-5.26a1.972,1.972,0,1,0,2.008,1.972A2,2,0,0,0,9.611,10.341Z" transform="translate(729.668 566.062)" fill="#9a9a9a"/></g><g transform="matrix(1, 0, 0, 1, -13, -61)" filter="url(#e)"><text transform="translate(195 77)" font-size="15" font-family="SegoeUI-Semilight, Segoe UI" font-weight="300" letter-spacing="-0.033em"><tspan x="-141.998" y="0" xml:space="preserve">Escolha o tipo de Certificado que deseja emitir  </tspan></text></g><g transform="matrix(1, 0, 0, 1, -13, -61)" filter="url(#g)"><text transform="translate(195 196)" font-size="15" font-family="SegoeUI-Semilight, Segoe UI" font-weight="300" letter-spacing="-0.033em"><tspan x="-77.361" y="0">Insira os dados solicitados</tspan></text></g></g><g transform="translate(11)"><path d="M0,0H283" transform="translate(30.5 18.5)" fill="none" stroke="#b9b7b7" stroke-linecap="round" stroke-width="3"/><g transform="translate(-1 4)"><g transform="matrix(1, 0, 0, 1, -23, -9)" filter="url(#i)"><g transform="translate(24 5)" fill="#0067a2" stroke="rgba(255,255,255,0)" stroke-width="1"><circle cx="17" cy="17" r="17" stroke="none"/><circle cx="17" cy="17" r="16.5" fill="none"/></g></g><text transform="translate(18 18.5)" fill="#fff" stroke="#fff" stroke-width="1" font-size="14" font-family="SegoeUI-Light, Segoe UI" font-weight="300"><tspan x="-2.495" y="0">1</tspan></text><line x2="8" transform="translate(14.5 19.5)" fill="none" stroke="#fff" stroke-width="1.4"/></g><g transform="translate(150 4)"><g transform="matrix(1, 0, 0, 1, -174, -9)" filter="url(#k)"><g transform="translate(175 5)" fill="#0067a2" stroke="rgba(255,255,255,0)" stroke-width="1"><circle cx="17" cy="17" r="17" stroke="none"/><circle cx="17" cy="17" r="16.5" fill="none"/></g></g><text transform="translate(18 18.5)" fill="#fff" stroke="#fff" stroke-width="1" font-size="14" font-family="SegoeUI-Light, Segoe UI" font-weight="300"><tspan x="-3.606" y="0">2</tspan></text></g><g transform="translate(308 4)"><g transform="matrix(1, 0, 0, 1, -332, -9)" filter="url(#m)"><g transform="translate(333 5)" fill="#b9b7b7" stroke="rgba(255,255,255,0)" stroke-width="1"><circle cx="17" cy="17" r="17" stroke="none"/><circle cx="17" cy="17" r="16.5" fill="none"/></g></g><text transform="translate(18 18.5)" fill="#fff" stroke="#fff" stroke-width="1" font-size="14" font-family="SegoeUI-Light, Segoe UI" font-weight="300"><tspan x="-3.606" y="0">3</tspan></text></g></g><g transform="translate(7 87)"><g transform="matrix(1, 0, 0, 1, -20, -92)" filter="url(#o)"><rect width="351" height="67" rx="16" transform="translate(20 92)" fill="#fff"/></g><text transform="translate(101 31.5)" fill="#b7b7b7" stroke="rgba(255,255,255,0)" stroke-width="1" font-size="14" font-family="SegoeUI-Light, Segoe UI" font-weight="300"><tspan x="-37.095" y="0">Pessoa Física</tspan></text><line x2="289" transform="translate(28.5 39.486)" fill="none" stroke="#c7c7c7" stroke-width="1"/><path d="M9.636,5.377l.966-.946a.5.5,0,0,0-.224-.848L9.062,3.248l.371-1.3a.509.509,0,0,0-.623-.623l-1.3.371L7.172.376A.5.5,0,0,0,6.324.152l-.945.974L4.434.152a.5.5,0,0,0-.847.224L3.251,1.693l-1.3-.371a.509.509,0,0,0-.623.623l.371,1.3L.379,3.584a.5.5,0,0,0-.224.848l.966.946-.966.946a.5.5,0,0,0,.224.848L1.7,7.506l-.371,1.3a.509.509,0,0,0,.623.623l1.3-.371.336,1.317a.5.5,0,0,0,.847.224l.945-.967.945.967a.5.5,0,0,0,.847-.224l.336-1.317,1.3.371a.509.509,0,0,0,.623-.623l-.371-1.3,1.316-.336a.5.5,0,0,0,.224-.848l-.966-.946Z" transform="translate(34.546 20.742)" fill="none" stroke="#b8b8b8" stroke-width="1"/><path d="M9.676,14.032l2.637-2.639a.5.5,0,0,1,.7,0,.5.5,0,0,1,0,.706l-2.988,2.99a.5.5,0,0,1-.687.015l-3.009-3a.5.5,0,1,1,.7-.706Z" transform="translate(298.399 14.753)" fill="#888"/></g></g></svg>