<svg xmlns="http://www.w3.org/2000/svg" xmlns:xlink="http://www.w3.org/1999/xlink" width="381" height="185" viewBox="0 0 381 185"><defs><filter id="a" x="37" y="17" width="298" height="15" filterUnits="userSpaceOnUse"><feOffset dx="1" dy="1" input="SourceAlpha"/><feGaussianBlur stdDeviation="2" result="b"/><feFlood flood-color="#9c9c9c" flood-opacity="0.522"/><feComposite operator="in" in2="b"/><feComposite in="SourceGraphic"/></filter><filter id="c" x="8" y="0" width="46" height="46" filterUnits="userSpaceOnUse"><feOffset dx="1" dy="1" input="SourceAlpha"/><feGaussianBlur stdDeviation="2" result="d"/><feFlood flood-opacity="0.522"/><feComposite operator="in" in2="d"/><feComposite in="SourceGraphic"/></filter><filter id="e" x="159" y="0" width="46" height="46" filterUnits="userSpaceOnUse"><feOffset dx="1" dy="1" input="SourceAlpha"/><feGaussianBlur stdDeviation="2" result="f"/><feFlood flood-opacity="0.522"/><feComposite operator="in" in2="f"/><feComposite in="SourceGraphic"/></filter><filter id="g" x="317" y="0" width="46" height="46" filterUnits="userSpaceOnUse"><feOffset dx="1" dy="1" input="SourceAlpha"/><feGaussianBlur stdDeviation="2" result="h"/><feFlood flood-opacity="0.522"/><feComposite operator="in" in2="h"/><feComposite in="SourceGraphic"/></filter><filter id="i" x="0" y="74" width="381" height="97" filterUnits="userSpaceOnUse"><feOffset dx="2" dy="2" input="SourceAlpha"/><feGaussianBlur stdDeviation="5" result="j"/><feFlood flood-opacity="0.161"/><feComposite operator="in" in2="j"/><feComposite in="SourceGraphic"/></filter><filter id="k" x="41.5" y="51.5" width="293" height="29" filterUnits="userSpaceOnUse"><feOffset input="SourceAlpha"/><feGaussianBlur stdDeviation="1.5" result="l"/><feFlood flood-opacity="0.161"/><feComposite operator="in" in2="l"/><feComposite in="SourceGraphic"/></filter></defs><g transform="translate(13 5)"><g transform="matrix(1, 0, 0, 1, -13, -5)" filter="url(#a)"><path d="M0,0H283" transform="translate(43.5 23.5)" fill="none" stroke="#b9b7b7" stroke-linecap="round" stroke-width="3"/></g><g transform="translate(-1 4)"><g transform="matrix(1, 0, 0, 1, -12, -9)" filter="url(#c)"><g transform="translate(13 5)" fill="#0067a2" stroke="rgba(255,255,255,0)" stroke-width="1"><circle cx="17" cy="17" r="17" stroke="none"/><circle cx="17" cy="17" r="16.5" fill="none"/></g></g><text transform="translate(18 18.5)" fill="#fff" stroke="#fff" stroke-width="1" font-size="14" font-family="SegoeUI-Light, Segoe UI" font-weight="300"><tspan x="-2.495" y="0">1</tspan></text><line x2="8" transform="translate(14.5 19.5)" fill="none" stroke="#fff" stroke-width="1.4"/></g><g transform="translate(150 4)"><g transform="matrix(1, 0, 0, 1, -163, -9)" filter="url(#e)"><g transform="translate(164 5)" fill="#b9b7b7" stroke="rgba(0,0,0,0)" stroke-width="1"><circle cx="17" cy="17" r="17" stroke="none"/><circle cx="17" cy="17" r="16.5" fill="none"/></g></g><text transform="translate(18 18.5)" fill="#fff" stroke="#fff" stroke-width="1" font-size="14" font-family="SegoeUI-Light, Segoe UI" font-weight="300"><tspan x="-3.606" y="0">2</tspan></text></g><g transform="translate(308 4)"><g transform="matrix(1, 0, 0, 1, -321, -9)" filter="url(#g)"><g transform="translate(322 5)" fill="#b9b7b7" stroke="rgba(255,255,255,0)" stroke-width="1"><circle cx="17" cy="17" r="17" stroke="none"/><circle cx="17" cy="17" r="16.5" fill="none"/></g></g><text transform="translate(18 18.5)" fill="#fff" stroke="#fff" stroke-width="1" font-size="14" font-family="SegoeUI-Light, Segoe UI" font-weight="300"><tspan x="-3.606" y="0">3</tspan></text></g><g transform="translate(0 51)"><g transform="matrix(1, 0, 0, 1, -13, -56)" filter="url(#i)"><rect width="351" height="67" rx="16" transform="translate(13 87)" fill="#fff"/></g><text transform="translate(117 62.5)" fill="#b7b7b7" stroke="rgba(255,255,255,0)" stroke-width="1" font-size="14" font-family="SegoeUI-Light, Segoe UI" font-weight="300"><tspan x="-55.945" y="0">Tipo de Certificado</tspan></text><line x2="289" transform="translate(28.5 70.486)" fill="none" stroke="#c7c7c7" stroke-width="1"/><path d="M9.636,5.377l.966-.946a.5.5,0,0,0-.224-.848L9.062,3.248l.371-1.3a.509.509,0,0,0-.623-.623l-1.3.371L7.172.376A.5.5,0,0,0,6.324.152l-.945.974L4.434.152a.5.5,0,0,0-.847.224L3.251,1.693l-1.3-.371a.509.509,0,0,0-.623.623l.371,1.3L.379,3.584a.5.5,0,0,0-.224.848l.966.946-.966.946a.5.5,0,0,0,.224.848L1.7,7.506l-.371,1.3a.509.509,0,0,0,.623.623l1.3-.371.336,1.317a.5.5,0,0,0,.847.224l.945-.967.945.967a.5.5,0,0,0,.847-.224l.336-1.317,1.3.371a.509.509,0,0,0,.623-.623l-.371-1.3,1.316-.336a.5.5,0,0,0,.224-.848l-.966-.946Z" transform="translate(34.546 51.742)" fill="none" stroke="#b8b8b8" stroke-width="1"/><g transform="matrix(1, 0, 0, 1, -13, -56)" filter="url(#k)"><text transform="translate(188 72)" font-size="15" font-family="SegoeUI-Semilight, Segoe UI" font-weight="300" letter-spacing="-0.033em"><tspan x="-141.998" y="0" xml:space="preserve">Escolha o tipo de Certificado que deseja emitir  </tspan></text></g><path d="M9.676,14.032l2.637-2.639a.5.5,0,0,1,.7,0,.5.5,0,0,1,0,.706l-2.988,2.99a.5.5,0,0,1-.687.015l-3.009-3a.5.5,0,1,1,.7-.706Z" transform="translate(298.399 45.753)" fill="#888"/><g transform="translate(54 70)" fill="#fff" stroke="#707070" stroke-width="1"><rect width="263" height="59" stroke="none"/><rect x="0.5" y="0.5" width="262" height="58" fill="none"/></g><rect width="261" height="22" transform="translate(55 105)" fill="#1e90ff"/><text transform="translate(101 121)" fill="#fff" stroke="rgba(255,255,255,0)" stroke-width="1" font-size="14" font-family="SegoeUI-Light, Segoe UI" font-weight="300" letter-spacing="0.013em"><tspan x="-38.187" y="0">Pessoa Física</tspan></text><text transform="translate(108 101)" fill="#b7b7b7" stroke="rgba(255,255,255,0)" stroke-width="1" font-size="14" font-family="SegoeUI-Light, Segoe UI" font-weight="300" letter-spacing="0.013em"><tspan x="-44.645" y="0">Pessoa Jurídica</tspan></text><text transform="translate(121 85)" fill="#b7b7b7" stroke="rgba(255,255,255,0)" stroke-width="1" font-size="14" font-family="SegoeUI-Light, Segoe UI" font-weight="300" letter-spacing="0.013em"><tspan x="-57.583" y="0">Tipo de Certificado</tspan></text></g></g></svg>