<svg xmlns="http://www.w3.org/2000/svg" xmlns:xlink="http://www.w3.org/1999/xlink" width="165.555" height="96.251" viewBox="0 0 165.555 96.251">
  <defs>
    <style>
      .cls-1 {
        fill: url(#linear-gradient);
      }

      .cls-2 {
        fill: url(#linear-gradient-2);
      }
    </style>
    <linearGradient id="linear-gradient" x1="0.122" y1="0.186" x2="0.89" y2="1.067" gradientUnits="objectBoundingBox">
      <stop offset="0" stop-color="#75b9e1"/>
      <stop offset="0.385" stop-color="#5096bf"/>
      <stop offset="1" stop-color="#0f6191"/>
    </linearGradient>
    <linearGradient id="linear-gradient-2" x1="0.214" y1="0.186" x2="0.786" y2="0.738" xlink:href="#linear-gradient"/>
  </defs>
  <g id="Grupo_61" data-name="Grupo 61" transform="translate(-217.445 -1989.895)">
    <path id="Icon_awesome-money-bill-wave" data-name="Icon awesome-money-bill-wave" class="cls-1" d="M133.455,7.075a63.623,63.623,0,0,0-25.01-4.825c-26.463,0-52.923,13.394-79.386,13.394A65.186,65.186,0,0,1,9.153,12.7a7.346,7.346,0,0,0-2.224-.348A6.837,6.837,0,0,0,0,19.182V87.344a6.832,6.832,0,0,0,4.048,6.329A63.588,63.588,0,0,0,29.058,98.5c26.463,0,52.926-13.4,79.388-13.4a65.187,65.187,0,0,1,19.906,2.948,7.346,7.346,0,0,0,2.224.348,6.837,6.837,0,0,0,6.929-6.834V13.407a6.841,6.841,0,0,0-4.05-6.332ZM10.313,23.782A74.768,74.768,0,0,0,23.788,25.7,13.766,13.766,0,0,1,10.313,36.774Zm0,61.231V74.748A13.746,13.746,0,0,1,24,87.94,51.9,51.9,0,0,1,10.313,85.013ZM68.751,71c-9.494,0-17.188-9.236-17.188-20.625s7.7-20.625,17.188-20.625,17.188,9.234,17.188,20.625S78.241,71,68.751,71ZM127.19,76.97a73.87,73.87,0,0,0-11.671-1.813A13.721,13.721,0,0,1,127.19,64.569Zm0-50.728A13.723,13.723,0,0,1,115.2,13.018a51.646,51.646,0,0,1,11.991,2.72Z" transform="translate(245.495 1987.645)"/>
    <path id="Icon_ionic-ios-close" data-name="Icon ionic-ios-close" class="cls-2" d="M25.07,22.828l7.96-8.245a1.99,1.99,0,0,0,0-2.732,1.828,1.828,0,0,0-2.638,0L22.432,20.1l-7.96-8.245a1.828,1.828,0,0,0-2.638,0,1.975,1.975,0,0,0,0,2.732l7.96,8.245-7.96,8.245a1.975,1.975,0,0,0,0,2.732,1.828,1.828,0,0,0,2.638,0l7.96-8.245,7.96,8.245a1.828,1.828,0,0,0,2.638,0,1.99,1.99,0,0,0,0-2.732Z" transform="translate(206.159 1978.607)"/>
  </g>
</svg>
