<svg xmlns="http://www.w3.org/2000/svg" xmlns:xlink="http://www.w3.org/1999/xlink" width="73.523" height="105.548" viewBox="0 0 73.523 105.548">
  <defs>
    <style>
      .cls-1 {
        fill: url(#linear-gradient);
      }

      .cls-2 {
        fill: #fff;
      }
    </style>
    <linearGradient id="linear-gradient" x1="0.309" y1="0.17" x2="0.736" y2="0.851" gradientUnits="objectBoundingBox">
      <stop offset="0" stop-color="#75b9e1"/>
      <stop offset="0.385" stop-color="#5096bf"/>
      <stop offset="1" stop-color="#0f6191"/>
    </linearGradient>
  </defs>
  <g id="Grupo_62" data-name="Grupo 62" transform="translate(-603.239 -2073.608)">
    <path id="Icon_awesome-lightbulb" data-name="Icon awesome-lightbulb" class="cls-1" d="M19.57,92.565a6.522,6.522,0,0,0,1.092,3.6l3.482,5.234a6.517,6.517,0,0,0,5.427,2.909H42.144a6.517,6.517,0,0,0,5.427-2.909l3.482-5.234a6.517,6.517,0,0,0,1.092-3.6l.008-7.813H19.56l.01,7.813ZM0,35.857A35.657,35.657,0,0,0,8.874,59.444c3.366,3.84,8.63,11.863,10.637,18.631.008.053.014.106.022.159H52.179c.008-.053.014-.1.022-.159,2.007-6.768,7.271-14.791,10.637-18.631A35.849,35.849,0,1,0,0,35.857Zm35.857-16.3a16.317,16.317,0,0,0-16.3,16.3,3.26,3.26,0,0,1-6.519,0A22.843,22.843,0,0,1,35.857,13.039a3.26,3.26,0,0,1,0,6.519Z" transform="translate(603.239 2074.859) rotate(-1)"/>
    <path id="Icon_awesome-leaf" data-name="Icon awesome-leaf" class="cls-2" d="M31.733.537A.922.922,0,0,0,30.088.47,10.055,10.055,0,0,1,21.38,5.316H16.732A10.906,10.906,0,0,0,5.578,15.95a10.449,10.449,0,0,0,.087,1.135c3.707-2.531,9.057-4.68,16.644-4.68a.887.887,0,1,1,0,1.772C7.7,14.178,1.511,22.712.14,25.919a1.745,1.745,0,0,0,1.017,2.3,1.9,1.9,0,0,0,2.428-.958,14.651,14.651,0,0,1,4.177-5.018,11.35,11.35,0,0,0,10.161,4.276c9.121-.631,15.541-8.429,15.541-17.977A19.337,19.337,0,0,0,31.733.537Z" transform="translate(618.888 2135.38) rotate(-56)"/>
  </g>
</svg>
