<svg xmlns="http://www.w3.org/2000/svg" xmlns:xlink="http://www.w3.org/1999/xlink" width="133.889" height="107.106" viewBox="0 0 133.889 107.106">
  <defs>
    <style>
      .cls-1 {
        fill: url(#linear-gradient);
      }
    </style>
    <linearGradient id="linear-gradient" x1="0.152" y1="0.099" x2="0.902" y2="1.065" gradientUnits="objectBoundingBox">
      <stop offset="0" stop-color="#75b9e1"/>
      <stop offset="0.385" stop-color="#5096bf"/>
      <stop offset="1" stop-color="#0f6191"/>
    </linearGradient>
  </defs>
  <path id="Icon_awesome-people-carry" data-name="Icon awesome-people-carry" class="cls-1" d="M26.779,20.082A10.041,10.041,0,1,0,16.737,10.041,10.044,10.044,0,0,0,26.779,20.082Zm80.33,0A10.041,10.041,0,1,0,97.067,10.041,10.044,10.044,0,0,0,107.108,20.082Zm26.3,77.84-9.2-23.011-8.6,9.706-.418,3.807,5.795,14.476a6.689,6.689,0,0,0,6.213,4.2,6.5,6.5,0,0,0,2.489-.481A6.691,6.691,0,0,0,133.4,97.923Zm-7.154-43.888-3.87-16.777a13.557,13.557,0,0,0-7.845-9.393,12.907,12.907,0,0,0-11.736.69A22.919,22.919,0,0,0,92.737,40.981l-2.364,7.092-3.347,2.134V30.124a3.357,3.357,0,0,0-3.347-3.347H50.208a3.357,3.357,0,0,0-3.347,3.347V50.206l-3.368-2.134-2.364-7.092A22.756,22.756,0,0,0,31.067,28.555a12.911,12.911,0,0,0-11.736-.69,13.557,13.557,0,0,0-7.845,9.393L7.638,54.034A13.4,13.4,0,0,0,10.65,65.9L24.708,81.773l2.113,19.371a6.7,6.7,0,0,0,6.652,5.962c.251,0,.481-.021.732-.042a6.684,6.684,0,0,0,5.92-7.384L38.012,80.267a13.37,13.37,0,0,0-3.263-7.322l-9.058-10.25,3.682-14.706L30.8,52.256a13.53,13.53,0,0,0,5.125,6.82l10.69,6.8a8.906,8.906,0,0,0,3.6,1.046H83.679a8.906,8.906,0,0,0,3.6-1.046l10.69-6.8a13.444,13.444,0,0,0,5.125-6.82l1.423-4.268L108.2,62.695l-9.058,10.25a13.37,13.37,0,0,0-3.263,7.322L93.762,99.68a6.7,6.7,0,0,0,5.92,7.384c.251.021.481.042.732.042a6.7,6.7,0,0,0,6.652-5.962l2.113-19.371L123.237,65.9a13.464,13.464,0,0,0,3.012-11.861ZM9.688,74.912.483,97.923A6.693,6.693,0,1,0,12.909,102.9L18.7,88.425l-.418-3.807-8.6-9.707Z" transform="translate(0.001)"/>
</svg>
